<svg xmlns="http://www.w3.org/2000/svg" xmlns:xlink="http://www.w3.org/1999/xlink" viewBox="0 0 430 430" width="430" height="430" preserveAspectRatio="xMidYMid meet" style="width: 100%; height: 100%; transform: translate3d(0px, 0px, 0px); content-visibility: visible;"><defs><clipPath id="__lottie_element_7"><rect width="430" height="430" x="0" y="0"/></clipPath><clipPath id="__lottie_element_9"><path d="M0,0 L430,0 L430,430 L0,430z"/></clipPath></defs><g clip-path="url(#__lottie_element_7)"><g clip-path="url(#__lottie_element_9)" transform="matrix(1,0,0,1,0,0)" opacity="1" style="display: block;"><g transform="matrix(1,0,0,1,-35,-35)" opacity="1" style="display: block;"><g opacity="1" transform="matrix(1,0,0,1,0,0)"><g opacity="1" transform="matrix(1,0,0,1,316.71600341796875,150.61199951171875)"><path stroke-linecap="round" stroke-linejoin="round" fill-opacity="0" class="primary" stroke="rgb(0,0,0)" stroke-opacity="1" stroke-width="12.04" d="M0 0"/></g></g><g opacity="1" transform="matrix(1,0,0,1,204.7480010986328,315.8840026855469)"><path stroke-linecap="round" stroke-linejoin="round" fill-opacity="0" class="secondary" stroke="rgb(255,111,7)" stroke-opacity="1" stroke-width="12.04" d=" M128.18699645996094,0 C128.18699645996094,0 128.18699645996094,0 128.18699645996094,0 M-27.996999740600586,0 C-27.996999740600586,0 -27.996999740600586,0 -27.996999740600586,0 M0,0 C0,0 0,0 0,0"/></g><g opacity="1" transform="matrix(1,0,0,1,204.7480010986328,271.63299560546875)"><path stroke-linecap="round" stroke-linejoin="round" fill-opacity="0" class="primary" stroke="rgb(0,0,0)" stroke-opacity="1" stroke-width="12.04" d=" M69.06199645996094,22.010000228881836 C69.06199645996094,22.010000228881836 69.06199645996094,22.010000228881836 69.06199645996094,22.010000228881836 M98.625,22.010000228881836 C98.625,22.010000228881836 98.625,22.010000228881836 98.625,22.010000228881836 M128.18699645996094,22.010000228881836 C128.18699645996094,22.010000228881836 128.18699645996094,22.010000228881836 128.18699645996094,22.010000228881836 M69.06199645996094,44.250999450683594 C69.06199645996094,44.250999450683594 69.06199645996094,44.250999450683594 69.06199645996094,44.250999450683594 M98.625,44.250999450683594 C98.625,44.250999450683594 98.625,44.250999450683594 98.625,44.250999450683594 M69.06199645996094,0 C69.06199645996094,0 69.06199645996094,0 69.06199645996094,0 M98.625,0 C98.625,0 98.625,0 98.625,0 M128.18699645996094,0 C128.18699645996094,0 128.18699645996094,0 128.18699645996094,0 M-27.996999740600586,22.010000228881836 C-27.996999740600586,22.010000228881836 -27.996999740600586,22.010000228881836 -27.996999740600586,22.010000228881836 M-27.996999740600586,0 C-27.996999740600586,0 -27.996999740600586,0 -27.996999740600586,0 M0,22.010000228881836 C0,22.010000228881836 0,22.010000228881836 0,22.010000228881836 M0,0 C0,0 0,0 0,0"/></g><g opacity="1" transform="matrix(1,0,0,1,190.75,223.38299560546875)"><path stroke-linecap="round" stroke-linejoin="round" fill-opacity="0" class="primary" stroke="rgb(0,0,0)" stroke-opacity="1" stroke-width="12.04" d=" M99.27999877929688,-53.44200134277344 C99.27999877929688,-53.44200134277344 99.27999877929688,-92.0979995727539 99.27999877929688,-92.0979995727539 M125.96600341796875,-92.0979995727539 C125.96600341796875,-92.0979995727539 125.96600341796875,-53.44200134277344 125.96600341796875,-53.44200134277344 M-80.8499984741211,120.02100372314453 C-80.8499984741211,120.02100372314453 -76.44000244140625,31.770999908447266 -67.02999877929688,-22.7189998626709 C-63.970001220703125,-40.46900177001953 -48.56999969482422,-53.43899917602539 -30.549999237060547,-53.43899917602539 C-30.549999237060547,-53.43899917602539 -24.75,-53.43899917602539 -24.75,-53.43899917602539 M25.75,-53.43899917602539 C25.75,-53.43899917602539 149.0500030517578,-53.43899917602539 149.0500030517578,-53.43899917602539 C167.07000732421875,-53.43899917602539 182.47000122070312,-40.46900177001953 185.52999877929688,-22.7189998626709 C194.94000244140625,31.770999908447266 199.35000610351562,120.02100372314453 199.35000610351562,120.02100372314453 M-24.75,-0.0689999982714653 C-24.75,-34.29600143432617 -24.75,-102.7490005493164 -24.75,-102.7490005493164 C-24.75,-102.7490005493164 -12.12600040435791,-92.7490005493164 -12.12600040435791,-92.7490005493164 C-12.12600040435791,-92.7490005493164 0.49300000071525574,-102.7490005493164 0.49300000071525574,-102.7490005493164 C0.49300000071525574,-102.7490005493164 13.121999740600586,-92.7490005493164 13.121999740600586,-92.7490005493164 C13.121999740600586,-92.7490005493164 25.75,-102.7490005493164 25.75,-102.7490005493164 C25.75,-102.7490005493164 25.75,-34.29600143432617 25.75,-0.0689999982714653 M154.1230010986328,23.25 C154.1230010986328,23.25 71.12300109863281,23.25 71.12300109863281,23.25 C71.12300109863281,23.25 71.12300109863281,-23.25 71.12300109863281,-23.25 C71.12300109863281,-23.25 154.1230010986328,-23.25 154.1230010986328,-23.25 C154.1230010986328,-23.25 154.1230010986328,23.25 154.1230010986328,23.25z M39.75,0 C39.75,0 -39.75,0 -39.75,0"/></g><g opacity="1" transform="matrix(1,0,0,1,303.37298583984375,109.89600372314453)"><path stroke-linecap="round" stroke-linejoin="round" fill-opacity="0" class="secondary" stroke="rgb(255,111,7)" stroke-opacity="1" stroke-width="12.04" d=" M42.9379997253418,20.014999389648438 C42.9379997253418,20.014999389648438 -42.9379997253418,20.014999389648438 -42.9379997253418,20.014999389648438 C-42.9379997253418,20.014999389648438 -42.9379997253418,-20.014999389648438 -42.9379997253418,-20.014999389648438 C-42.9379997253418,-20.014999389648438 42.9379997253418,-20.014999389648438 42.9379997253418,-20.014999389648438 C42.9379997253418,-20.014999389648438 42.9379997253418,20.014999389648438 42.9379997253418,20.014999389648438z"/></g></g><g transform="matrix(1,0,0,1,-35,-35)" opacity="1" style="display: block;"><g opacity="1" transform="matrix(1,0,0,1,0,0)"><g opacity="1" transform="matrix(1,0,0,1,165.2480010986328,376.760986328125)"><path stroke-linecap="round" stroke-linejoin="round" fill-opacity="0" class="primary" stroke="rgb(0,0,0)" stroke-opacity="1" stroke-width="12.04" d=" M244.87100219726562,-33.358001708984375 C244.87100219726562,-33.358001708984375 -75.36699676513672,-33.358001708984375 -75.36699676513672,-33.358001708984375 C-75.36699676513672,-33.358001708984375 -75.36699676513672,21.357999801635742 -75.36699676513672,21.357999801635742 C-75.36699676513672,27.95800018310547 -69.96700286865234,33.358001708984375 -63.367000579833984,33.358001708984375 C-63.367000579833984,33.358001708984375 232.87100219726562,33.358001708984375 232.87100219726562,33.358001708984375 C239.4709930419922,33.358001708984375 244.87100219726562,27.95800018310547 244.87100219726562,21.357999801635742 C244.87100219726562,21.357999801635742 244.87100219726562,-33.358001708984375 244.87100219726562,-33.358001708984375z M214.63499450683594,0 C214.63499450683594,0 124.3740005493164,0 124.3740005493164,0 M45.130001068115234,0 C45.130001068115234,0 -45.130001068115234,0 -45.130001068115234,0"/></g></g><g opacity="1" transform="matrix(1,0,0,1,0,0)"><g opacity="0" transform="matrix(1,0,0,1,165.2480010986328,376.760986328125)"><path stroke-linecap="round" stroke-linejoin="round" fill-opacity="0" class="primary" stroke="rgb(0,0,0)" stroke-opacity="1" stroke-width="12.04" d=" M245.2519989013672,-33.26100158691406 C245.2519989013672,-33.26100158691406 224.7519989013672,-33.02199935913086 224.7519989013672,-33.02199935913086 C224.7519989013672,-33.02199935913086 -55.18199920654297,-33.5 -55.18199920654297,-33.5 C-55.18199920654297,-33.5 -74.32599639892578,-33 -74.32599639892578,-33 M-55.18199920654297,-33.5 C-55.18199920654297,-33.5 -55.303001403808594,-34 -55.303001403808594,-34 M224.8179931640625,-33.5 C224.8179931640625,-33.5 224.69700622558594,-34 224.69700622558594,-34"/></g></g><g opacity="1" transform="matrix(1,0,0,1,250,376.760986328125)"><path stroke-linecap="round" stroke-linejoin="round" fill-opacity="0" class="secondary" stroke="rgb(255,111,7)" stroke-opacity="1" stroke-width="17.99" d=" M0,0 C0,0 0,0 0,0"/></g></g></g></g></svg>